# xmcd
#
# Track frame offsets: 
#        150
#        24558
#        50765
#        66980
#        100245
#        124228
#        153568
#        182463
#
# Disc length: 2804 seconds
#
# Revision: 1
# Processed by: cddbd v1.5.1PL2 Copyright (c) Steve Scherf et al.
# Submitted via: ExactAudioCopy v0.95b4
#
DISCID=6c0af208
DTITLE=Stan Levey - Grand Stan
DYEAR=1956
DGENRE=Jazz
TTITLE0=Yesterdays
TTITLE1=Angel Cake
TTITLE2=Why Do I Love You
TTITLE3=Grand Stan
TTITLE4=Hit That Thing
TTITLE5=Blues At Sunrise
TTITLE6=A Gal In Calico
TTITLE7=Tiny's Tune
EXTD=YEAR: 1956
EXTT0=
EXTT1=
EXTT2=
EXTT3=
EXTT4=
EXTT5=
EXTT6=
EXTT7=
PLAYORDER=
